<?xml version="1.0" encoding="utf-8"?>
<!-- Generator: Adobe Illustrator 19.0.0, SVG Export Plug-In . SVG Version: 6.00 Build 0)  -->
<svg version="1.2" baseProfile="tiny" id="Слой_1"
	 xmlns="http://www.w3.org/2000/svg" xmlns:xlink="http://www.w3.org/1999/xlink" x="0px" y="0px" viewBox="0 0 236 50.2"
	 xml:space="preserve">
<g id="XMLID_190_">
	<path id="XMLID_218_" fill-rule="evenodd" fill="#000101" stroke="#000101" stroke-width="0.216" stroke-miterlimit="22.9256" d="
		M129,49.7h4.9v0.4h-16.4v-0.4h4.6V0.5l-5,0V0.2c7.6,0,9.5-0.1,16.4,0l0,0.5H129v23.5C128.9,38.8,129,13.2,129,49.7z"/>
	<path id="XMLID_217_" fill-rule="evenodd" fill="#000101" stroke="#000101" stroke-width="0.216" stroke-miterlimit="22.9256" d="
		M168.1,47.4c-0.4,1.5-2,1.8-3.5,2.1c-1.8,0.4-0.9,0.2-2.8,0.4c0,0.3,0-0.2,0,0.1c6.7,0,7.6-0.1,14.3-0.1c0,0,0,0.2,0-0.2
		c-2-0.2-1.1-0.1-3.1-0.3c-1.3-0.2-3.7,0-3.1-2c1.6-6.9,0.8-2.8,2.5-9.8c0-0.1,0,0,0.2-0.8c2.2,0,12.9,0.2,15,0.1
		c0.6,0-0.1-0.3-0.2-0.6c0,0,0.6,0,0,0c-2.5,0-14.7-0.1-14.7-0.1c1.6-6.2,5.8-23.6,7.2-29.7c3.5,13.2,9.5,38.1,9.8,40.2
		c0.3,2.1-1.3,2.6-2.9,2.7c-1.3,0.1-3.2,0-4.4,0c0,0,0,0.1,0,0.7c8.3,0,15.5,0,23.7,0c0-0.8,0,0,0-0.5c-0.8,0-4.3-0.1-7-1.7
		c-1.1-0.8-1.6-3.3-2.2-4.8c-4-15.3-6.4-25-10.3-40.5c-0.1-0.4,0-1.6,1-1.8c1.8-0.2,3.1-0.1,3.9-0.1c0-1.3,0,0.2,0-0.4
		c-7-0.1-11.1,0.1-18.1,0c0,0.2,0,0.3,0,0.5c2.4,0,5-0.4,5.4,1.2C179.2,3.7,171.8,32,168.1,47.4z"/>
	<path id="XMLID_216_" fill-rule="evenodd" fill="#000101" stroke="#000101" stroke-width="0.216" stroke-miterlimit="22.9256" d="
		M135.6,49.7V50c3.5,0.1,24,0.4,26-0.2l0.1-16.3c-1.3,2.5,0,16-11.7,16.3c-0.5,0-1.7,0-2.1,0l-1.8-0.4L146,1.1
		c2.3-0.6,1.6-0.4,4.4-0.4c-1.6-0.8-12.8-0.6-15.4-0.2l4.3,0.2l0.2,49L135.6,49.7z"/>
	<path id="XMLID_206_" fill-rule="evenodd" fill="#000101" stroke="#000101" stroke-width="0.216" stroke-miterlimit="22.9256" d="
		M42.8,0.4c-9.4,2.1-14.2,15.7-13.4,27.1c0.8,10.6,6.5,24.6,17.9,22.3c4.3-0.9,8.5-6.1,10.2-9.7c2.4-5.1,3.4-11.4,3.1-17.4
		c-0.4-6.4-2.8-14.3-7-18.4C50.7,1.6,47.7-0.7,42.8,0.4L42.8,0.4z M42.2,1.2c10.7-4.5,11.2,13.9,11.3,21.1
		c0.1,7.3,0.4,24.6-5.8,26.8C36.2,53.3,36.5,36,36.4,28c-0.1-5.1,0-10.7,0.7-15.7C37.7,7.8,38.3,2.8,42.2,1.2z"/>
	
		<polygon id="XMLID_205_" fill-rule="evenodd" fill="#000101" stroke="#000101" stroke-width="0.216" stroke-miterlimit="22.9256" points="
		105.9,21.5 106.4,20.7 106.9,19.7 107.3,18.9 	"/>
	
		<polygon id="XMLID_204_" fill-rule="evenodd" fill="#000101" stroke="#000101" stroke-width="0.216" stroke-miterlimit="22.9256" points="
		107.2,18.9 107.6,17.7 107.6,16.4 107.6,14.8 108.2,14.8 108.2,33.9 107.5,33.9 107.5,31.8 107.4,30.3 107,29.3 106.3,27.9 
		105.6,26.8 104.7,25.7 103.9,25.2 103.1,24.8 100.6,24.8 100.6,49.3 105.5,49.3 105.5,50.1 89.1,50.1 89.1,49.3 93.7,49.3 
		93.7,0.6 89.7,0.6 89.7,0.1 114.7,0.1 114.7,15 114.3,15 114.3,9.2 112.5,5.4 110.5,2.8 108.2,1 107.5,0.8 100.7,0.8 100.7,24.1 
		103.1,24.1 104.4,23.2 105.2,22.3 106,21.4 	"/>
	
		<polygon id="XMLID_203_" fill-rule="evenodd" fill="#000101" stroke="#000101" stroke-width="0.216" stroke-miterlimit="22.9256" points="
		79.8,21.5 80.3,20.7 80.7,19.7 81.1,18.9 	"/>
	
		<polygon id="XMLID_197_" fill-rule="evenodd" fill="#000101" stroke="#000101" stroke-width="0.216" stroke-miterlimit="22.9256" points="
		81.1,18.9 81.5,17.7 81.5,16.4 81.5,14.8 82,14.8 82,33.9 81.4,33.9 81.4,31.8 81.2,30.3 80.9,29.3 80.2,27.9 79.4,26.8 78.5,25.7 
		77.8,25.2 76.9,24.8 74.5,24.8 74.5,49.3 79.3,49.3 79.3,50.1 63,50.1 63,49.3 67.6,49.3 67.6,0.6 63.6,0.6 63.6,0.1 88.6,0.1 
		88.6,15 88.2,15 88.2,9.2 86.4,5.4 84.4,2.8 82,1 81.4,0.8 74.6,0.8 74.6,24.1 77,24.1 78.2,23.2 79,22.3 79.9,21.4 	"/>
	
		<polygon id="XMLID_196_" fill-rule="evenodd" fill="#000101" stroke="#000101" stroke-width="0.216" stroke-miterlimit="22.9256" points="
		0.1,0.6 0.1,0.1 15.3,0.1 15.3,0.6 10.8,0.6 10.8,49.7 17.5,49.7 20.4,48.5 22.7,46.4 24.1,43.8 25.2,41.1 26.4,33.3 26.9,33.2 
		26.9,50.1 0.1,50.1 0.1,49.7 4.5,49.7 4.5,0.6 	"/>
	<path id="XMLID_191_" fill-rule="evenodd" fill="#000101" stroke="#000101" stroke-width="0.216" stroke-miterlimit="22.9256" d="
		M202.5,0.3c2.5,0,8.7-0.1,10.8-0.1c12.5-0.1,16.5,2.3,17.9,11.6c-0.9,10-6.7,10.5-15.4,11.6c9.1,0.6,19,2.9,20.2,14.4
		c-0.8,9.5-8.3,12.4-13.4,12.4h-20.6v-0.5c1.4-0.1,2.7-0.1,4-0.2c0.3-0.1,0.6-0.2,0.6-0.5V1.1l-4-0.3L202.5,0.3L202.5,0.3z
		 M213,23.8c0,7.3,0,18.1,0,25.4c10.4,0,16.3-4,16.3-13.6C229,26.7,220.6,23.8,213,23.8L213,23.8z M213,0.9c0,7.3,0,14.6,0,21.9
		c9.4-0.6,12.1-4.8,12.5-11.8C224.7,5.3,223.2,0.9,213,0.9z"/>
</g>
</svg>
